<svg width="53" height="46" viewBox="0 0 53 46" fill="none" xmlns="http://www.w3.org/2000/svg">
<path d="M0 21.9018V11.4843L17.0826 0.188267L21.3377 8.40928L32.0378 0L36.4179 8.28376L47.1806 0.188267L53 8.84857L52.8123 22.4666L44.6151 12.9904L33.3518 21.2115L29.1594 12.8022L17.8961 20.7094L13.1405 12.6139L0 21.9018ZM0 45.3724V35.0177L17.0826 23.7217L21.3377 31.9427L32.0378 23.5334L36.4179 31.8172L47.1806 23.7217L53 32.3192L52.8123 46L44.6151 36.4611L33.3518 44.7449L29.1594 36.3356L17.8961 44.2428L13.1405 36.0846L0 45.3724Z" fill="#AC55A3"/>
</svg>
