<svg width="51" height="48" viewBox="0 0 51 48" fill="none" xmlns="http://www.w3.org/2000/svg">
<path d="M15.1091 24.1299H5.84632C3.98585 22.6579 2.5806 20.8974 1.63058 18.8486C0.680548 16.7997 0.146158 14.7409 0.0274046 12.6722C-0.0913487 10.6034 0.175846 8.62421 0.82899 6.73449C1.48213 4.84477 2.48164 3.3131 3.82751 2.13949C5.17338 0.965872 6.83593 0.26966 8.81515 0.0508501C10.7944 -0.167959 13.0309 0.319389 15.5247 1.5129C17.8998 2.66662 19.8889 4.4171 21.4921 6.76433C23.0952 9.11156 24.4312 11.7969 25.5 14.8205C26.5292 11.7969 27.8454 9.11156 29.4485 6.76433C31.0517 4.4171 33.0408 2.66662 35.4159 1.5129C37.9493 0.319389 40.2056 -0.167959 42.1848 0.0508501C44.1641 0.26966 45.8266 0.965872 47.1725 2.13949C48.5184 3.3131 49.5179 4.84477 50.171 6.73449C50.8242 8.62421 51.0913 10.6034 50.9726 12.6722C50.8538 14.7409 50.3195 16.7997 49.3694 18.8486C48.4194 20.8974 47.0141 22.6579 45.1537 24.1299H35.8315C36.3461 23.2148 36.8212 22.3794 37.2566 21.6235C37.6128 20.9472 37.9592 20.3206 38.2957 19.7437C38.6321 19.1669 38.84 18.779 38.9191 18.58C39.0379 18.3016 39.2556 17.7148 39.5723 16.8196C39.8889 15.9245 40.1166 15.0493 40.2551 14.1939C40.3937 13.3386 40.3442 12.6921 40.1067 12.2545C39.8692 11.8168 39.2358 11.9362 38.2066 12.6125C36.8212 13.5275 35.6831 14.9299 34.7924 16.8196C33.9018 18.7093 33.1794 20.7483 32.6252 22.9363C32.071 25.1244 31.6653 27.2827 31.408 29.4111C31.1507 31.5395 30.9429 33.3199 30.7845 34.7521C30.6262 36.1843 30.4876 37.6861 30.3689 39.2576C30.2501 40.829 30.1512 42.2513 30.072 43.5243C29.9532 45.0759 29.8741 46.5678 29.8345 48H21.1655C21.1259 46.5678 21.0467 45.0759 20.928 43.5243C20.8488 42.2513 20.74 40.829 20.6014 39.2576C20.4629 37.6861 20.3144 36.1843 20.1561 34.7521C19.9978 33.3199 19.7899 31.5395 19.5326 29.4111C19.2753 27.2827 18.8696 25.1244 18.3154 22.9363C17.7612 20.7483 17.0388 18.7093 16.1482 16.8196C15.2575 14.9299 14.1195 13.5275 12.734 12.6125C11.7048 11.9362 11.0715 11.8168 10.834 12.2545C10.5965 12.6921 10.547 13.3386 10.6855 14.1939C10.8241 15.0493 11.0517 15.9245 11.3684 16.8196C11.685 17.7148 11.9027 18.3016 12.0215 18.58C12.1007 18.779 12.3085 19.1669 12.6449 19.7437C12.9814 20.3206 13.3278 20.9472 13.684 21.6235C14.1195 22.3794 14.5945 23.2148 15.1091 24.1299Z" fill="#A6D836"/>
</svg>
