<svg width="50" height="46" viewBox="0 0 50 46" fill="none" xmlns="http://www.w3.org/2000/svg">
<path d="M2 11.8935C3.05882 10.1445 4.48039 8.54119 6.26471 7.08365C8.04902 5.62611 10.0882 4.37262 12.3824 3.32319C14.6765 2.27376 17.1569 1.45754 19.8235 0.874525C22.4902 0.291508 25.2745 0 28.1765 0C32.0196 0 35.6471 0.47613 39.0588 1.42839C42.4706 2.38065 45.7451 3.98395 48.8824 6.23828L48.9412 16.2662C46.8235 14.6726 44.5882 13.3025 42.2353 12.1559C39.8824 11.0093 37.4706 10.1639 35 9.61977C32.5294 9.07562 30.0098 8.87157 27.4412 9.0076C24.8726 9.14364 22.3333 9.69751 19.8235 10.6692C20.7255 11.6798 21.451 12.8361 22 14.1382C22.549 15.4402 22.8235 16.8297 22.8235 18.3067C22.8235 19.8614 22.5196 21.3287 21.9118 22.7085C21.3039 24.0883 20.4902 25.2835 19.4706 26.294C18.451 27.3046 17.2451 28.1111 15.8529 28.7136C14.4608 29.316 12.9804 29.6172 11.4118 29.6172C9.84314 29.6172 8.36275 29.316 6.97059 28.7136C5.57843 28.1111 4.37255 27.3046 3.35294 26.294C2.33333 25.2835 1.51961 24.0883 0.911765 22.7085C0.303922 21.3287 0 19.8614 0 18.3067C0 15.8969 0.666667 13.7592 2 11.8935ZM11.3529 20.5222C12.0196 20.5222 12.5784 20.2987 13.0294 19.8517C13.4804 19.4047 13.7059 18.8509 13.7059 18.1901C13.7059 17.5294 13.4804 16.9755 13.0294 16.5285C12.5784 16.0815 12.0196 15.8581 11.3529 15.8581C10.6863 15.8581 10.1275 16.0815 9.67647 16.5285C9.22549 16.9755 9 17.5294 9 18.1901C9 18.8509 9.22549 19.4047 9.67647 19.8517C10.1275 20.2987 10.6863 20.5222 11.3529 20.5222ZM38.6471 25.4778C37.9804 25.4778 37.4216 25.7013 36.9706 26.1483C36.5196 26.5953 36.2941 27.1491 36.2941 27.8099C36.2941 28.4706 36.5196 29.0245 36.9706 29.4715C37.4216 29.9185 37.9804 30.142 38.6471 30.142C39.3137 30.142 39.8725 29.9185 40.3235 29.4715C40.7745 29.0245 41 28.4706 41 27.8099C41 27.1491 40.7745 26.5953 40.3235 26.1483C39.8725 25.7013 39.3137 25.4778 38.6471 25.4778ZM48 34.1065C46.9412 35.8555 45.5196 37.4588 43.7353 38.9164C41.951 40.3739 39.9118 41.6274 37.6176 42.6768C35.3235 43.7262 32.8333 44.5425 30.1471 45.1255C27.4608 45.7085 24.6863 46 21.8235 46C17.9804 46 14.3529 45.5239 10.9412 44.5716C7.52941 43.6194 4.2549 42.0161 1.11765 39.7617L1.05882 29.7338C3.17647 31.3274 5.41177 32.6975 7.76471 33.8441C10.1176 34.9907 12.5294 35.8361 15 36.3802C17.4706 36.9244 19.9804 37.1284 22.5294 36.9924C25.0784 36.8564 27.6274 36.3025 30.1765 35.3308C29.2745 34.3202 28.549 33.1639 28 31.8619C27.451 30.5598 27.1765 29.1703 27.1765 27.6933C27.1765 26.1386 27.4804 24.6713 28.0882 23.2915C28.6961 21.9117 29.5098 20.7165 30.5294 19.706C31.549 18.6954 32.7549 17.8889 34.1471 17.2864C35.5392 16.684 37.0196 16.3828 38.5882 16.3828C40.1569 16.3828 41.6373 16.684 43.0294 17.2864C44.4216 17.8889 45.6275 18.6954 46.6471 19.706C47.6667 20.7165 48.4804 21.9117 49.0882 23.2915C49.6961 24.6713 50 26.1386 50 27.6933C50 28.8982 49.8235 30.0448 49.4706 31.1331C49.1176 32.2214 48.6275 33.2125 48 34.1065Z" fill="#C73D3D"/>
</svg>
