<svg width="39" height="57" viewBox="0 0 39 57" fill="none" xmlns="http://www.w3.org/2000/svg">
<path d="M6.32523 9.34152L6.32732 9.34248C7.32401 9.80184 8.35425 10.1837 9.40636 10.4882C11.5145 11.1033 13.7219 11.3983 15.9201 11.36C13.2763 15.5945 11.3945 20.6298 10.6613 26.1936C10.4394 27.8746 10.3168 29.5988 10.3168 31.3728C10.3168 33.1986 10.5201 35.2197 10.7326 36.815C10.8391 37.6143 10.9485 38.3107 11.0371 38.8274C11.0879 39.1238 11.1338 39.373 11.1695 39.5496L6.87507 45.4641C6.87492 45.4643 6.87477 45.4645 6.87462 45.4647C6.6051 45.8346 6.48652 46.2694 6.48985 46.6745H6.48967L6.49015 46.688C6.52963 47.8098 7.20657 48.6648 8.04038 49.2939L8.04028 49.2941L8.05073 49.3016C8.71862 49.779 9.46628 50.0716 10.2491 50.08C10.8345 50.089 11.5641 49.8814 12.0435 49.2408L12.0435 49.2408L12.0478 49.235L13.2002 47.6478C15.1934 52.2797 19.7952 55.5174 25.1567 55.5219H25.1572C32.3447 55.5197 38.1705 49.6952 38.1705 42.5075C38.1705 35.3164 32.3451 29.4855 25.1571 29.4855C22.1059 29.4855 19.2984 30.5402 17.0793 32.299C17.0666 31.9294 17.06 31.5625 17.06 31.1978C17.06 28.8375 17.3207 26.5747 17.7797 24.4218L17.7797 24.4216C19.4242 16.6889 23.7456 10.5051 28.8429 7.0733C29.5276 6.6135 30.2369 5.91151 30.6988 5.08792C31.1617 4.26255 31.4023 3.26165 31.0329 2.2616L31.0326 2.26098C30.6 1.09462 29.3717 0.483611 28.2652 0.500342L28.2651 0.500344C27.3615 0.514215 26.5529 0.810552 25.8253 1.19571C25.2457 1.50246 24.6908 1.8814 24.1769 2.2323C24.0537 2.31638 23.933 2.39885 23.8148 2.47833L23.8142 2.47871C21.3768 4.12257 18.4872 4.9638 15.5396 4.96386C13.547 4.96179 11.5584 4.57326 9.68318 3.81171C9.6794 3.80991 9.67557 3.80814 9.67169 3.80641C9.66608 3.8039 9.66049 3.80152 9.65493 3.79927L9.65523 3.79772C8.37145 3.27815 7.14277 2.58549 6.01128 1.70755L6.01129 1.70752L6.00711 1.70435C5.80177 1.54845 5.38568 1.31231 4.88909 1.10966C4.38911 0.90564 3.76155 0.716434 3.13464 0.689096C2.50643 0.661702 1.82035 0.796392 1.29518 1.31148C0.7721 1.82453 0.5 2.62576 0.5 3.72987C0.5 4.53291 0.910549 5.27454 1.43757 5.90418C1.97062 6.541 2.67136 7.12142 3.36121 7.61122C4.74266 8.59205 6.15856 9.26376 6.32523 9.34152ZM25.1571 35.7975C28.8556 35.8029 31.8561 38.8005 31.8641 42.5075C31.8561 46.2057 28.8564 49.2024 25.1571 49.2125C21.4516 49.2024 18.4547 46.2054 18.4505 42.5075C18.4547 38.8009 21.4548 35.8029 25.1571 35.7975Z" fill="black" stroke="black"/>
</svg>
