<svg width="41" height="49" viewBox="0 0 41 49" fill="none" xmlns="http://www.w3.org/2000/svg">
<path d="M11.4618 29.6542C12.146 29.6542 12.7163 29.4176 13.1725 28.9443C13.6287 28.4711 13.8567 27.9127 13.8567 27.2691C13.8567 26.6255 13.6287 26.067 13.1725 25.5938C12.7163 25.1205 12.146 24.8839 11.4618 24.8839C10.8155 24.8839 10.2643 25.1205 9.80807 25.5938C9.35188 26.067 9.12378 26.6255 9.12378 27.2691C9.12378 27.9127 9.35188 28.4711 9.80807 28.9443C10.2643 29.4176 10.8155 29.6542 11.4618 29.6542ZM0 27.2691C0 25.7168 0.294623 24.2592 0.883867 22.8963C1.47311 21.5334 2.28095 20.3313 3.30737 19.2902C4.3338 18.2491 5.53129 17.4256 6.89986 16.8199C8.26843 16.2141 9.73204 15.9113 11.2907 15.9113C11.1766 15.0026 11.1196 14.0372 11.1196 13.015C11.1956 10.5542 11.6994 8.45296 12.6307 6.71143C13.5621 4.9699 14.7501 3.57857 16.1947 2.53744C17.6393 1.4963 19.2645 0.776977 21.0702 0.379454C22.876 -0.0180691 24.6817 -0.103253 26.4875 0.123903C28.2932 0.351059 30.0134 0.88109 31.6481 1.714C33.2828 2.5469 34.6609 3.64482 35.7823 5.00776C36.9038 6.3707 37.6831 7.99865 38.1203 9.89162C38.5575 11.7846 38.491 13.9236 37.9207 16.3088C37.0464 19.8676 35.9249 23.2938 34.5563 26.5876C33.1878 29.8814 31.8002 33.0615 30.3936 36.1282C29.7473 37.5668 29.4527 38.6363 29.5097 39.3367C29.5668 40.0371 29.7853 40.482 30.1655 40.6713C30.5457 40.8606 30.9543 40.8416 31.3915 40.6145C31.8287 40.3873 32.1043 40.0466 32.2184 39.5923L41 39.7627C40.962 41.5799 40.5533 43.1321 39.774 44.4194C38.9947 45.7066 37.9968 46.7193 36.7803 47.4576C35.5637 48.1958 34.2047 48.6691 32.7031 48.8773C31.2014 49.0855 29.7378 49.0287 28.3122 48.7069C26.8866 48.3851 25.5751 47.8078 24.3776 46.9749C23.1801 46.142 22.2487 45.044 21.5835 43.6811C20.9182 42.3182 20.614 40.6997 20.6711 38.8256C20.7281 36.9516 21.2888 34.8409 22.3533 32.4937C23.7979 29.3892 25.0999 26.332 26.2594 23.3222C27.4189 20.3124 28.4548 17.2931 29.3672 14.2644C29.7093 13.1286 29.6143 12.1159 29.0821 11.2262C28.5498 10.3365 27.8275 9.68339 26.9152 9.26694C26.0028 8.85048 25.0144 8.68958 23.9499 8.78423C22.8855 8.87888 22.0016 9.3048 21.2983 10.062C20.595 10.8192 20.1769 11.9644 20.0438 13.4977C19.9108 15.031 20.3194 17.0281 21.2698 19.489C21.688 20.549 22.0491 21.6943 22.3533 22.9247C22.6574 24.1551 22.8095 25.414 22.8095 26.7012V27.2691C22.8095 28.8592 22.5053 30.3451 21.8971 31.727C21.2888 33.1089 20.4715 34.3109 19.4451 35.3331C18.4186 36.3553 17.2116 37.1598 15.8241 37.7466C14.4365 38.3335 12.9634 38.6269 11.4047 38.6269C9.84608 38.6269 8.37297 38.3335 6.9854 37.7466C5.59782 37.1598 4.39082 36.3553 3.36439 35.3331C2.33797 34.3109 1.52063 33.1089 0.912379 31.727C0.304127 30.3451 0 28.8592 0 27.2691Z" fill="#7A99BD"/>
</svg>
