<svg width="53" height="51" viewBox="0 0 53 51" fill="none" xmlns="http://www.w3.org/2000/svg">
<path d="M0 41.1923H53V51H0V41.1923ZM30.928 33.2109V27.191C32.3813 26.3793 33.5508 25.2633 34.4364 23.8428C35.322 22.4224 35.7648 20.8554 35.7648 19.1419C35.7648 17.8793 35.5263 16.6956 35.0495 15.5908C34.5726 14.4861 33.9141 13.5279 33.0739 12.7162C32.2337 11.9045 31.2459 11.2619 30.1105 10.7885C28.9751 10.315 27.7716 10.0782 26.5 10.0782C25.1829 10.0782 23.9681 10.315 22.8554 10.7885C21.7427 11.2619 20.7549 11.9045 19.892 12.7162C19.0291 13.5279 18.3593 14.4861 17.8824 15.5908C17.4055 16.6956 17.1671 17.8793 17.1671 19.1419C17.1671 20.8554 17.5985 22.4111 18.4614 23.809C19.3243 25.2069 20.4597 26.2891 21.8676 27.0557V33.2109V36.9987H0V27.1233H7.90231C7.31191 25.9058 6.85775 24.632 6.53985 23.3017C6.22194 21.9715 6.06298 20.5849 6.06298 19.1419C6.06298 16.5265 6.59661 14.0464 7.66388 11.7016C8.73115 9.35676 10.1844 7.32759 12.0238 5.61406C13.8631 3.90053 16.0317 2.53647 18.5296 1.52188C21.0274 0.507295 23.6842 0 26.5 0C29.3158 0 31.9726 0.507295 34.4704 1.52188C36.9683 2.53647 39.1369 3.90053 40.9762 5.61406C42.8155 7.32759 44.2688 9.35676 45.3361 11.7016C46.4034 14.0464 46.937 16.5265 46.937 19.1419C46.937 20.5849 46.7781 21.9715 46.4602 23.3017C46.1422 24.632 45.6881 25.9058 45.0977 27.1233H53V36.9987H30.928V33.2109Z" fill="#79B9BD"/>
</svg>
