<svg width="42" height="46" viewBox="0 0 42 46" fill="none" xmlns="http://www.w3.org/2000/svg">
<path d="M23.7871 19.7222C24.1551 15.6088 25.1301 11.8627 26.7122 8.48383C28.2943 5.10499 30.318 2.27705 32.7832 0H41.8344C39.3693 2.27705 37.4376 5.10499 36.0394 8.48383C34.6413 11.8627 33.795 15.6088 33.5007 19.7222H40.7306V27.8755H33.6662C34.071 31.6583 34.9816 35.1014 36.3982 38.2048C37.8147 41.3082 39.682 43.9066 42 46H33.0039C30.6859 43.9066 28.7267 41.3082 27.1262 38.2048C25.5256 35.1014 24.4678 31.6583 23.9527 27.8755H18.0473C17.5322 31.6583 16.4836 35.1014 14.9014 38.2048C13.3193 41.3082 11.3509 43.9066 8.99606 46H0C2.318 43.9066 4.18528 41.3082 5.60184 38.2048C7.0184 35.1014 7.92904 31.6583 8.33377 27.8755H0.662287V19.7222H8.55453C8.26018 15.6088 7.41393 11.8627 6.01577 8.48383C4.61761 5.10499 2.68594 2.27705 0.220762 0H9.21682C11.682 2.27705 13.7148 5.10499 15.3154 8.48383C16.9159 11.8627 17.8817 15.6088 18.2129 19.7222H23.7871Z" fill="#C58E8E"/>
</svg>
