<svg width="46" height="46" viewBox="0 0 46 46" fill="none" xmlns="http://www.w3.org/2000/svg">
<path d="M24.4718 43.9326L16.2183 35.7778L5.94479 46L0 40.1423L10.3312 29.8627C8.75366 28.3313 7.46466 27.0487 6.46424 26.015L3.98243 23.603L2.65496 22.2247C2.34714 21.9567 2.17399 21.7844 2.13551 21.7079L8.02258 15.8502L16.2183 24.005L29.3777 10.9114C27.0305 10.3371 25.1259 9.86808 23.6637 9.50437C22.2016 9.14066 21.0569 8.85352 20.2296 8.64295C19.4023 8.43238 18.8348 8.28881 18.527 8.21223L17.9498 8.09738C17.8729 8.05909 17.8632 8.04952 17.921 8.06866C17.9787 8.08781 17.9691 8.07824 17.8921 8.03995L19.9122 0L40.8632 5.16854L46 25.9576L37.862 27.9675L35.0916 16.9988L22.1631 29.8627L30.3588 38.0749L24.4718 43.9326Z" fill="#7A9F68"/>
</svg>
