<svg width="53" height="50" viewBox="0 0 53 50" fill="none" xmlns="http://www.w3.org/2000/svg">
<path d="M39.6952 49.8902C38.1622 49.8902 36.8299 49.7256 35.6983 49.3963C34.8588 49.1401 34.0649 48.7742 33.3166 48.2986C32.5684 47.8229 31.7744 46.9813 30.9349 45.7739C30.8619 45.6641 30.7798 45.5543 30.6885 45.4446C30.5973 45.3348 30.5152 45.2067 30.4421 45.0604L30.3326 44.8957C29.5296 43.5053 28.9912 41.9502 28.7175 40.2305C28.4437 38.5108 28.2703 36.7911 28.1973 35.0714L28.1426 34.1383V7.79363C28.1426 7.39115 28.1152 6.97036 28.0604 6.53128C28.0057 6.09221 27.8871 5.67142 27.7045 5.26894C27.4125 4.86645 27.084 4.75668 26.719 4.93963C26.5365 5.01281 26.354 5.2049 26.1715 5.51592C25.989 5.82693 25.8612 6.27516 25.7882 6.86059C25.8247 8.94621 25.8338 11.2148 25.8156 13.6663C25.7973 16.1178 25.77 18.5876 25.7335 21.0757C25.697 23.5638 25.6605 26.0154 25.624 28.4303C25.5875 30.8452 25.551 33.0589 25.5145 35.0714H16.6446V7.79363C16.6446 7.39115 16.6081 6.97036 16.5351 6.53128C16.4621 6.09221 16.3344 5.67142 16.1519 5.26894C15.8963 4.82986 15.5678 4.72009 15.1663 4.93963C14.9838 5.0494 14.7922 5.28723 14.5914 5.65313C14.3907 6.01903 14.2903 6.53128 14.2903 7.1899C14.3268 11.7636 14.2994 16.4105 14.2082 21.1306C14.1169 25.8507 14.0348 30.4976 13.9618 35.0714H5.09194V7.79363C5.09194 6.58617 4.79993 5.52506 4.21591 4.61032C3.63189 3.69557 2.5551 3.2382 0.985537 3.2382H0C0.985537 2.10392 2.0167 1.28064 3.09349 0.768386C4.17028 0.256128 5.52996 3.70186e-08 7.17252 0C8.19456 0 9.16185 0.192096 10.0744 0.576289C10.9869 0.960483 11.7717 1.50018 12.4287 2.19539L12.6477 2.03074L12.9215 1.8112C13.8705 1.0794 14.8561 0.594585 15.8781 0.356751C16.9001 0.118917 17.8309 0 18.6705 0C19.729 0 20.7145 0.192096 21.6271 0.576289C22.5396 0.960483 23.3244 1.50018 23.9814 2.19539L24.2004 2.03074L24.4194 1.8112C25.3685 1.0794 26.3631 0.594585 27.4034 0.356751C28.4437 0.118917 29.3836 0 30.2231 0C31.1357 0 32.0208 0.164654 32.8786 0.493963C33.7364 0.823271 34.4938 1.28064 35.1508 1.86608C35.8079 2.45152 36.3371 3.15587 36.7386 3.97914C37.1402 4.80241 37.3409 5.70801 37.3409 6.69594V10.0988C37.3409 11.3063 37.3318 12.8156 37.3135 14.6268C37.2953 16.438 37.277 18.3589 37.2588 20.3897C37.2405 22.4204 37.2314 24.4786 37.2314 26.5642C37.2314 28.6498 37.2223 30.5434 37.204 32.2448C37.1858 33.9462 37.1858 35.3915 37.204 36.5807C37.2223 37.7698 37.2497 38.4742 37.2862 38.6937L37.3957 39.3524L37.5599 40.1756C37.8519 41.2367 38.1713 42.1149 38.5181 42.8101C38.8648 43.5053 39.2664 44.045 39.7226 44.4292C40.1789 44.8134 40.699 45.0695 41.2831 45.1976C41.8671 45.3256 42.5241 45.3897 43.2541 45.3897C43.8747 45.3165 44.4769 45.1793 45.061 44.978C45.645 44.7768 46.156 44.5481 46.594 44.292L44.7324 40.8891L53 41.1636L49.7149 50C49.7149 49.9634 49.5597 49.6707 49.2495 49.1218C48.9392 48.573 48.5833 47.8961 48.1818 47.0911C47.9628 47.3472 47.6617 47.64 47.2784 47.9693C46.8951 48.2986 46.375 48.6004 45.718 48.8749C45.061 49.1493 44.2397 49.3871 43.2541 49.5884C42.2686 49.7896 41.0823 49.8902 39.6952 49.8902Z" fill="#9C8B4E"/>
</svg>
