<svg width="46" height="46" viewBox="0 0 46 46" fill="none" xmlns="http://www.w3.org/2000/svg">
<path d="M0 0.192857C0.684 0.0128574 1.494 -0.0411429 2.43 0.0308571C3.222 0.102857 4.176 0.282857 5.292 0.570857C6.408 0.858857 7.722 1.38086 9.234 2.13686C10.242 2.67686 11.169 3.33386 12.015 4.10786C12.861 4.88186 13.644 5.70986 14.364 6.59186C15.084 7.47386 15.768 8.34686 16.416 9.21086C17.064 10.0749 17.712 10.8579 18.36 11.5599C19.008 12.2619 19.665 12.8379 20.331 13.2879C20.997 13.7379 21.726 13.9629 22.518 13.9629C23.31 13.9629 24.048 13.7379 24.732 13.2879C25.416 12.8379 26.082 12.2619 26.73 11.5599C27.378 10.8579 28.026 10.0749 28.674 9.21086C29.322 8.34686 30.006 7.47386 30.726 6.59186C31.446 5.70986 32.229 4.88186 33.075 4.10786C33.921 3.33386 34.848 2.67686 35.856 2.13686C37.332 1.38086 38.637 0.858857 39.771 0.570857C40.905 0.282857 41.868 0.102857 42.66 0.0308571C43.596 -0.0411429 44.406 0.0128574 45.09 0.192857V8.72486C44.334 8.68886 43.614 8.72486 42.93 8.83286C42.318 8.90486 41.67 9.03086 40.986 9.21086C40.302 9.39086 39.708 9.67886 39.204 10.0749C38.808 10.3629 38.34 10.8219 37.8 11.4519C37.26 12.0819 36.675 12.7839 36.045 13.5579C35.415 14.3319 34.749 15.1239 34.047 15.9339C33.345 16.7439 32.67 17.4729 32.022 18.1209C33.966 19.5249 35.523 21.2889 36.693 23.4129C37.863 25.5369 38.448 27.8409 38.448 30.3249C38.448 32.4489 38.025 34.4379 37.179 36.2919C36.333 38.1459 35.181 39.7569 33.723 41.1249C32.265 42.4929 30.546 43.5819 28.566 44.3919C26.586 45.2019 24.48 45.6069 22.248 45.6069C20.016 45.6069 17.91 45.2019 15.93 44.3919C13.95 43.5819 12.231 42.4929 10.773 41.1249C9.315 39.7569 8.163 38.1459 7.317 36.2919C6.471 34.4379 6.048 32.4489 6.048 30.3249C6.048 27.7329 6.66 25.3569 7.884 23.1969C9.108 21.0369 10.746 19.2729 12.798 17.9049C12.15 17.2569 11.502 16.5369 10.854 15.7449C10.206 14.9529 9.567 14.1789 8.937 13.4229C8.307 12.6669 7.731 11.9919 7.209 11.3979C6.687 10.8039 6.246 10.3629 5.886 10.0749C5.346 9.67886 4.743 9.39086 4.077 9.21086C3.411 9.03086 2.772 8.90486 2.16 8.83286C1.476 8.72486 0.756 8.68886 0 8.72486V0.192857ZM14.904 30.2709C14.904 31.2789 15.093 32.2239 15.471 33.1059C15.849 33.9879 16.371 34.7619 17.037 35.4279C17.703 36.0939 18.486 36.6159 19.386 36.9939C20.286 37.3719 21.24 37.5609 22.248 37.5609C23.256 37.5609 24.21 37.3719 25.11 36.9939C26.01 36.6159 26.802 36.0939 27.486 35.4279C28.17 34.7619 28.701 33.9879 29.079 33.1059C29.457 32.2239 29.646 31.2789 29.646 30.2709C29.646 29.2629 29.457 28.3179 29.079 27.4359C28.701 26.5539 28.17 25.7889 27.486 25.1409C26.802 24.4929 26.01 23.9799 25.11 23.6019C24.21 23.2239 23.256 23.0349 22.248 23.0349C21.24 23.0349 20.286 23.2239 19.386 23.6019C18.486 23.9799 17.703 24.4929 17.037 25.1409C16.371 25.7889 15.849 26.5539 15.471 27.4359C15.093 28.3179 14.904 29.2629 14.904 30.2709Z" fill="#A463B0"/>
</svg>
