<svg width="54" height="54" viewBox="0 0 54 54" fill="none" xmlns="http://www.w3.org/2000/svg">
<g clip-path="url(#clip0_398_3984)">
<path d="M21.017 13.7708C21.017 13.3582 20.9826 12.9542 20.9138 12.5588C20.8451 12.1634 20.7247 11.7765 20.5528 11.3983C20.3809 11.1576 20.2175 11.0287 20.0628 11.0115C19.9081 10.9943 19.762 11.0201 19.6244 11.0889C19.4181 11.192 19.229 11.4155 19.0571 11.7593C18.8852 12.1032 18.7992 12.5846 18.7992 13.2035C18.8336 17.5015 18.8078 21.8682 18.7218 26.3038C18.6359 30.7393 18.5585 35.0889 18.4898 39.3525H10.1345V13.7708C10.1345 12.6017 9.85938 11.596 9.30924 10.7536C8.75909 9.9112 7.74477 9.49 6.26626 9.49H5.33789C6.26626 8.4241 7.2376 7.65046 8.25193 7.16908C9.26626 6.68771 10.5299 6.44702 12.0428 6.44702C13.0399 6.44702 13.9683 6.62754 14.8279 6.98857C15.6875 7.3496 16.4267 7.85676 17.0456 8.51006L17.2519 8.35533L17.5098 8.14903C18.4038 7.46135 19.3322 7.00576 20.2949 6.78226C21.2577 6.55877 22.1345 6.44702 22.9253 6.44702C23.888 6.44702 24.7992 6.62754 25.6588 6.98857C26.5184 7.3496 27.2749 7.85676 27.9282 8.51006L28.0829 8.35533L28.3408 8.14903C29.2347 7.46135 30.1631 7.00576 31.1259 6.78226C32.0886 6.55877 32.9654 6.44702 33.7562 6.44702C34.6502 6.44702 35.5012 6.60175 36.3092 6.9112C37.1173 7.22066 37.8221 7.65046 38.4239 8.2006C39.0256 8.75075 39.5155 9.40404 39.8938 10.1605C40.272 10.9169 40.4611 11.7593 40.4611 12.6877C40.5299 14.8195 40.5299 17.4155 40.4611 20.4757C40.6674 19.8911 40.9253 19.2894 41.2347 18.6705C41.5442 18.0516 41.9138 17.4843 42.3436 16.9685C42.7734 16.4528 43.2634 16.0315 43.8135 15.7049C44.3637 15.3783 44.9998 15.2149 45.7218 15.2149C46.3064 15.2149 47.0027 15.2923 47.8107 15.447C48.6187 15.6017 49.3923 16.1347 50.1316 17.0459C50.8708 17.957 51.4984 19.3926 52.0141 21.3525C52.5299 23.3123 52.7878 26.0803 52.7878 29.6562C52.7878 32.2694 52.4869 34.6075 51.8852 36.6705C51.2835 38.7336 50.527 40.5473 49.6158 42.1118C48.7047 43.6763 47.7161 45.0172 46.6502 46.1347C45.5843 47.2522 44.5872 48.172 43.6588 48.894C43.8995 48.9972 44.1402 49.0659 44.3809 49.1003C44.6216 49.1347 44.8794 49.1519 45.1545 49.1519C45.8078 49.1519 46.4095 49.0487 46.9597 48.8424C47.5098 48.6361 48.0084 48.3954 48.4554 48.1204C48.9367 47.8109 49.4009 47.4499 49.8479 47.0373V49.9771C49.6416 50.5273 49.229 51.0086 48.6101 51.4212C48.0943 51.7995 47.3551 52.1347 46.3923 52.427C45.4296 52.7192 44.123 52.8654 42.4726 52.8654C40.6502 52.8654 39.0686 52.5731 37.7276 51.9886C36.7304 52.3324 35.7161 52.6247 34.6846 52.8654C33.6531 53.106 32.7075 53.3124 31.8479 53.4843C30.8508 53.6906 29.8708 53.8625 28.9081 54V50.8023C29.3895 50.8023 29.9224 50.7336 30.5069 50.596C30.9883 50.4929 31.5643 50.3553 32.2347 50.1834C32.9052 50.0115 33.6359 49.7536 34.4267 49.4098C33.9453 48.7565 33.5499 48.0258 33.2405 47.2178C32.931 46.4098 32.6817 45.576 32.4926 44.7164C32.3035 43.8568 32.1574 42.9714 32.0542 42.0602C31.9511 41.149 31.8823 40.2464 31.8479 39.3525V38.4757V13.7708C31.8479 13.3582 31.8135 12.9542 31.7448 12.5588C31.676 12.1634 31.5557 11.7765 31.3837 11.3983C31.2462 11.1576 31.1001 11.0201 30.9453 10.9857C30.7906 10.9513 30.6445 10.9685 30.5069 11.0373C30.335 11.1404 30.1545 11.3381 29.9654 11.6304C29.7763 11.9227 29.6645 12.3439 29.6302 12.894C29.6645 14.8539 29.6731 16.9771 29.6559 19.2636C29.6388 21.5502 29.613 23.8625 29.5786 26.2006C29.5442 28.5387 29.5012 30.8424 29.4496 33.1118C29.3981 35.3811 29.3551 37.4613 29.3207 39.3525H21.017V13.7708H21.017ZM40.3579 28.6247V28.831V29.7078C40.3236 31.6333 40.2892 33.4212 40.2548 35.0717C40.2204 36.7221 40.2032 38.149 40.2032 39.3525C40.2032 40.4871 40.2462 41.5101 40.3322 42.4212C40.4181 43.3324 40.5471 44.1318 40.719 44.8195C42.0256 43.341 43.1087 41.4585 43.9683 39.172C44.8279 36.8854 45.2577 34.0745 45.2577 30.7393C45.2577 27.576 45.1373 25.2207 44.8966 23.6734C44.6559 22.1261 44.3637 21.1462 44.0198 20.7336C43.676 20.3209 43.2978 20.3553 42.8852 20.8367C42.4726 21.3181 42.0771 22.0058 41.6989 22.8997C41.3207 23.7937 41.0112 24.7823 40.7706 25.8654C40.5299 26.9485 40.3923 27.8682 40.3579 28.6247Z" fill="#DA4747"/>
</g>
<defs>
<clipPath id="clip0_398_3984">
<rect width="54" height="54" fill="white"/>
</clipPath>
</defs>
</svg>
